<svg width="900" height="320" viewBox="0 0 900 320" fill="none" xmlns="http://www.w3.org/2000/svg">
  <defs>
    <linearGradient id="bgGrad" x1="0%" y1="0%" x2="100%" y2="100%">
      <stop offset="0%" style="stop-color:#0d1117"/>
      <stop offset="100%" style="stop-color:#161b27"/>
    </linearGradient>
    <linearGradient id="barGrad1" x1="0%" y1="0%" x2="100%" y2="0%">
      <stop offset="0%" style="stop-color:#6366F1"/>
      <stop offset="100%" style="stop-color:#8B5CF6"/>
    </linearGradient>
    <linearGradient id="barGrad2" x1="0%" y1="0%" x2="100%" y2="0%">
      <stop offset="0%" style="stop-color:#06B6D4"/>
      <stop offset="100%" style="stop-color:#3B82F6"/>
    </linearGradient>
    <linearGradient id="barGrad3" x1="0%" y1="0%" x2="100%" y2="0%">
      <stop offset="0%" style="stop-color:#22C55E"/>
      <stop offset="100%" style="stop-color:#06B6D4"/>
    </linearGradient>
  </defs>

  <rect width="900" height="320" rx="16" fill="url(#bgGrad)"/>
  <rect width="900" height="320" rx="16" fill="none" stroke="#1F2937" stroke-width="1"/>

  <!-- Title -->
  <text x="450" y="36" text-anchor="middle" font-family="'SF Pro Display', system-ui, sans-serif" font-size="20" font-weight="700" fill="#F8FAFC">Tech Proficiency Matrix</text>
  <rect x="350" y="44" width="200" height="2" rx="1" fill="url(#barGrad1)" opacity="0.6"/>

  <!-- Left column labels -->
  <text x="20" y="80" font-family="'SF Pro Text', system-ui, sans-serif" font-size="12" fill="#9CA3AF">⚛️  React / Next.js</text>
  <text x="20" y="115" font-family="'SF Pro Text', system-ui, sans-serif" font-size="12" fill="#9CA3AF">🟨 JavaScript / TS</text>
  <text x="20" y="150" font-family="'SF Pro Text', system-ui, sans-serif" font-size="12" fill="#9CA3AF">🟩 Node / Express</text>
  <text x="20" y="185" font-family="'SF Pro Text', system-ui, sans-serif" font-size="12" fill="#9CA3AF">🎨 Tailwind CSS</text>
  <text x="20" y="220" font-family="'SF Pro Text', system-ui, sans-serif" font-size="12" fill="#9CA3AF">📱 Flutter</text>
  <text x="20" y="255" font-family="'SF Pro Text', system-ui, sans-serif" font-size="12" fill="#9CA3AF">🗄️  MySQL / PG</text>
  <text x="20" y="290" font-family="'SF Pro Text', system-ui, sans-serif" font-size="12" fill="#9CA3AF">🐘 PHP</text>

  <!-- Bars - React 95% -->
  <rect x="180" y="66" width="540" height="16" rx="8" fill="#1F2937"/>
  <rect x="180" y="66" width="513" height="16" rx="8" fill="url(#barGrad1)"/>
  <text x="730" y="79" font-family="'JetBrains Mono', monospace" font-size="11" fill="#818CF8">95%</text>

  <!-- Bars - JS/TS 90% -->
  <rect x="180" y="101" width="540" height="16" rx="8" fill="#1F2937"/>
  <rect x="180" y="101" width="486" height="16" rx="8" fill="url(#barGrad1)"/>
  <text x="730" y="114" font-family="'JetBrains Mono', monospace" font-size="11" fill="#818CF8">90%</text>

  <!-- Bars - Node 90% -->
  <rect x="180" y="136" width="540" height="16" rx="8" fill="#1F2937"/>
  <rect x="180" y="136" width="486" height="16" rx="8" fill="url(#barGrad3)"/>
  <text x="730" y="149" font-family="'JetBrains Mono', monospace" font-size="11" fill="#4ADE80">90%</text>

  <!-- Bars - Tailwind 95% -->
  <rect x="180" y="171" width="540" height="16" rx="8" fill="#1F2937"/>
  <rect x="180" y="171" width="513" height="16" rx="8" fill="url(#barGrad2)"/>
  <text x="730" y="184" font-family="'JetBrains Mono', monospace" font-size="11" fill="#22D3EE">95%</text>

  <!-- Bars - Flutter 80% -->
  <rect x="180" y="206" width="540" height="16" rx="8" fill="#1F2937"/>
  <rect x="180" y="206" width="432" height="16" rx="8" fill="url(#barGrad2)"/>
  <text x="730" y="219" font-family="'JetBrains Mono', monospace" font-size="11" fill="#22D3EE">80%</text>

  <!-- Bars - MySQL 75% -->
  <rect x="180" y="241" width="540" height="16" rx="8" fill="#1F2937"/>
  <rect x="180" y="241" width="405" height="16" rx="8" fill="url(#barGrad1)"/>
  <text x="730" y="254" font-family="'JetBrains Mono', monospace" font-size="11" fill="#818CF8">75%</text>

  <!-- Bars - PHP 80% -->
  <rect x="180" y="276" width="540" height="16" rx="8" fill="#1F2937"/>
  <rect x="180" y="276" width="432" height="16" rx="8" fill="url(#barGrad1)"/>
  <text x="730" y="289" font-family="'JetBrains Mono', monospace" font-size="11" fill="#818CF8">80%</text>

  <!-- Right column labels -->
  <text x="770" y="80" font-family="'SF Pro Text', system-ui, sans-serif" font-size="11" fill="#6B7280">Expert</text>
  <text x="770" y="115" font-family="'SF Pro Text', system-ui, sans-serif" font-size="11" fill="#6B7280">Expert</text>
  <text x="770" y="150" font-family="'SF Pro Text', system-ui, sans-serif" font-size="11" fill="#6B7280">Expert</text>
  <text x="770" y="185" font-family="'SF Pro Text', system-ui, sans-serif" font-size="11" fill="#6B7280">Expert</text>
  <text x="770" y="220" font-family="'SF Pro Text', system-ui, sans-serif" font-size="11" fill="#6B7280">Advanced</text>
  <text x="770" y="255" font-family="'SF Pro Text', system-ui, sans-serif" font-size="11" fill="#6B7280">Advanced</text>
  <text x="770" y="290" font-family="'SF Pro Text', system-ui, sans-serif" font-size="11" fill="#6B7280">Advanced</text>
</svg>
